<?xml version="1.0" encoding="UTF-8" standalone="no"?>
<!-- Created with Inkscape (http://www.inkscape.org/) -->

<svg
   width="200"
   height="200"
   viewBox="0 0 52.916665 52.916666"
   version="1.1"
   id="svg1"
   inkscape:version="1.4.4 (dcaf3e7, 2026-05-05)"
   sodipodi:docname="chickenbroth.svg"
   xmlns:inkscape="http://www.inkscape.org/namespaces/inkscape"
   xmlns:sodipodi="http://sodipodi.sourceforge.net/DTD/sodipodi-0.dtd"
   xmlns="http://www.w3.org/2000/svg"
   xmlns:svg="http://www.w3.org/2000/svg">
  <sodipodi:namedview
     id="namedview1"
     pagecolor="#ffffff"
     bordercolor="#000000"
     borderopacity="0.25"
     inkscape:showpageshadow="2"
     inkscape:pageopacity="0.0"
     inkscape:pagecheckerboard="0"
     inkscape:deskcolor="#d1d1d1"
     inkscape:document-units="mm"
     inkscape:zoom="3.0324635"
     inkscape:cx="74.032218"
     inkscape:cy="78.319162"
     inkscape:window-width="1920"
     inkscape:window-height="1111"
     inkscape:window-x="-9"
     inkscape:window-y="-9"
     inkscape:window-maximized="1"
     inkscape:current-layer="layer1"
     showguides="false"
     inkscape:lockguides="false" />
  <defs
     id="defs1" />
  <g
     inkscape:label="Vrstva 1"
     inkscape:groupmode="layer"
     id="layer1">
    <path
       style="fill:#f7f5ca;fill-opacity:1;stroke:#d4d082;stroke-width:2.11667;stroke-dasharray:none;stroke-opacity:1"
       d="m 20.990666,5.9724208 c 0,0 -13.7857553,21.3178592 -13.4929723,27.6401952 0.343936,7.4269 6.2446813,13.820098 13.7159953,14.355759 7.471312,0.535663 14.818324,-8.721711 13.939018,-15.748484 C 34.212936,24.709926 20.990666,5.9724208 20.990666,5.9724208 Z"
       id="path8"
       sodipodi:nodetypes="csssc" />
    <path
       style="fill:#fffff3;fill-opacity:1;stroke:#c5c8b1;stroke-width:2.11666667;stroke-dasharray:none;stroke-opacity:1"
       d="m 43.19831,41.187595 c 0,0 1.19546,2.752129 4.225053,3.517513 3.029593,0.765385 -2.122143,7.803059 -3.504502,2.117022 -0.360276,-1.481915 -2.751197,-3.40352 -2.767574,-3.40352 -0.01638,0 1.80138,-1.335352 2.047023,-2.231015 z"
       id="path3"
       sodipodi:nodetypes="csssc" />
    <path
       style="fill:#e9c9c9;fill-opacity:1;stroke:#c18c8c;stroke-width:2.11666667;stroke-dasharray:none;stroke-opacity:1"
       d="m 41.194933,43.684809 c -0.752946,1.559282 -18.829605,-8.48156 -11.973416,-14.831425 7.983022,-7.393482 14.101845,10.01522 14.266198,12.321137 0.04276,0.59991 -2.292782,2.510288 -2.292782,2.510288 z"
       id="path2"
       sodipodi:nodetypes="cssc" />
  </g>
</svg>
