<?xml version="1.0" encoding="UTF-8" standalone="no"?>
<!-- Created with Inkscape (http://www.inkscape.org/) -->

<svg
   width="200"
   height="200"
   viewBox="0 0 52.916665 52.916666"
   version="1.1"
   id="svg1"
   xml:space="preserve"
   sodipodi:docname="whole grain flour.svg"
   inkscape:version="1.4.4 (dcaf3e7, 2026-05-05)"
   xmlns:inkscape="http://www.inkscape.org/namespaces/inkscape"
   xmlns:sodipodi="http://sodipodi.sourceforge.net/DTD/sodipodi-0.dtd"
   xmlns="http://www.w3.org/2000/svg"
   xmlns:svg="http://www.w3.org/2000/svg"><sodipodi:namedview
     id="namedview1"
     pagecolor="#505050"
     bordercolor="#eeeeee"
     borderopacity="1"
     inkscape:showpageshadow="0"
     inkscape:pageopacity="0"
     inkscape:pagecheckerboard="0"
     inkscape:deskcolor="#505050"
     inkscape:document-units="mm"
     inkscape:zoom="1.9477379"
     inkscape:cx="-17.456147"
     inkscape:cy="101.39968"
     inkscape:window-width="1920"
     inkscape:window-height="991"
     inkscape:window-x="-9"
     inkscape:window-y="-9"
     inkscape:window-maximized="1"
     inkscape:current-layer="layer1" /><defs
     id="defs1" /><g
     inkscape:label="Layer 1"
     inkscape:groupmode="layer"
     id="layer1"><path
       style="fill:#c6b961;stroke:#7d722e;stroke-width:2.11667;fill-opacity:1;stroke-opacity:1"
       d="m 11.614434,23.364711 c 0,0 2.580986,-11.614434 12.701166,-17.18393 10.120181,-5.56949504 17.251851,18.542343 17.251851,18.542343 0,0 -9.780577,7.13167 -29.953017,-1.358413 z"
       id="path2"
       sodipodi:nodetypes="cscc" /><path
       style="fill:#cad476;fill-opacity:1;stroke:#7e8542;stroke-width:2.11667;stroke-opacity:1"
       d="m 19.085708,46.050215 c 3.762738,-0.127526 4.869015,-0.82139 17.251849,0.882969 15.088496,2.076763 11.750278,-3.05643 11.750278,-3.05643 0.154092,-0.0862 -6.140221,-8.199706 -4.482764,-18.542343 2.293259,-14.310081 -3.96036,6.711779 -32.737764,-5.569496 -3.7907747,-1.617781 3.236686,11.471242 -4.686526,23.500553 -6.72043788,10.203215 4.898301,3.09355 12.904927,2.784747 z"
       id="path1"
       sodipodi:nodetypes="cscsssc" /></g></svg>
